# xmcd
#
# Track frame offsets:
#	150
#	15845
#	41967
#	55665
#	70230
#	85829
#	104912
#	118580
#	131195
#	146345
#	164144
#	185864
#	199615
#	220039
#
# Disc length: 3133 seconds
#
# Revision: 1
# Processed by: cddbd v1.5.1PL0 Copyright (c) Steve Scherf et al.
# Submitted via: audiograbber 1.83.01
#
DISCID=d30c3b0e
DTITLE=Westbrook - Unter einem Hut
DYEAR=1900
DGENRE=Country
TTITLE0=When I Die
TTITLE1=Medley- Long Hard Ride
TTITLE2=Guitars and Cadillacs
TTITLE3=Coca-Cola-Cowboy
TTITLE4=Heut' Nacht sah ich den lieben Gott im Fernsehen
TTITLE5=Georgia on my mind
TTITLE6=Bury me
TTITLE7=East, bound and down
TTITLE8=Mein Stiefel kommt in'n Himmel zum Besohlen
TTITLE9=Neon moon
TTITLE10=These boots are made for Walkin' - Driving my live away
TTITLE11=Tequila sunrise
TTITLE12=Pick a bale of cotten - Acky breaky heart
TTITLE13=Dixie
EXTD=
EXTT0=
EXTT1=
EXTT2=
EXTT3=
EXTT4=
EXTT5=
EXTT6=
EXTT7=
EXTT8=
EXTT9=
EXTT10=
EXTT11=
EXTT12=
EXTT13=
PLAYORDER=
